<?xml version="1.0" encoding="utf-8"?>
<!-- Generator: Adobe Illustrator 27.5.0, SVG Export Plug-In . SVG Version: 6.00 Build 0)  -->
<svg version="1.1" xmlns="http://www.w3.org/2000/svg" xmlns:xlink="http://www.w3.org/1999/xlink" x="0px" y="0px"
	 viewBox="0 0 2200 2200" style="enable-background:new 0 0 2200 2200;" xml:space="preserve">
<g id="background">
	<rect style="fill:#FFFFFF;" width="2200" height="2200"/>
</g>
<g id="Objects">
	<g>
		<path style="fill:#A6D400;" d="M1107.419,576.643c10.155-3.159,17.529-12.631,17.529-23.826V268.355h632.066
			c96.292,0,174.632,78.339,174.632,174.632v632.066h-261.866c-11.704-61.313-65.722-107.797-130.394-107.797
			c-64.672,0-118.69,46.484-130.394,107.797h-284.044V768.412c0-11.195-7.373-20.667-17.529-23.826
			c-2.344-0.729-4.835-1.122-7.419-1.122c-45.684,0-82.85-37.166-82.85-82.85s37.167-82.85,82.85-82.85
			C1102.583,577.764,1105.075,577.372,1107.419,576.643z"/>
		<path style="fill:#FFC205;" d="M268.355,442.987c0-96.292,78.339-174.632,174.632-174.632h632.066v261.866
			c-61.313,11.704-107.797,65.722-107.797,130.394s46.484,118.689,107.797,130.394v284.044H768.412
			c-2.583,0-5.075,0.393-7.419,1.122c-10.155,3.159-17.529,12.631-17.529,23.826c0,45.684-37.166,82.85-82.85,82.85
			s-82.85-37.167-82.85-82.85c0-11.195-7.373-20.667-17.529-23.826c-2.344-0.729-4.835-1.122-7.419-1.122H268.355V442.987z"/>
		<path style="fill:#F24949;" d="M1075.053,1647.183v284.462H442.987c-96.292,0-174.632-78.339-174.632-174.632v-632.066h261.866
			c11.704,61.313,65.722,107.797,130.394,107.797s118.69-46.484,130.394-107.797h284.044v306.641
			c0,13.778,11.169,24.947,24.947,24.947c45.684,0,82.85,37.166,82.85,82.85c0,45.684-37.167,82.85-82.85,82.85
			C1086.222,1622.236,1075.053,1633.405,1075.053,1647.183z"/>
		<path style="fill:#1B6DCE;" d="M1931.645,1757.013c0,96.292-78.339,174.632-174.632,174.632h-632.066v-261.866
			c61.313-11.704,107.797-65.722,107.797-130.394c0-64.672-46.484-118.69-107.797-130.394v-284.044h306.641
			c13.778,0,24.947-11.169,24.947-24.947c0-45.684,37.166-82.85,82.85-82.85c45.684,0,82.85,37.167,82.85,82.85
			c0,13.778,11.169,24.947,24.947,24.947h284.462V1757.013z"/>
	</g>
</g>
</svg>
